<svg version="1.1" id="Layer_1" xmlns="http://www.w3.org/2000/svg" xmlns:xlink="http://www.w3.org/1999/xlink" x="0px" y="0px"
	 width="100%" viewBox="0 0 500 500" enable-background="new 0 0 500 500" xml:space="preserve">
<path fill="#00165B" opacity="1.000000" stroke="none" 
	d="
M347.000000,501.000000 
	C231.333359,501.000000 116.166725,501.000000 1.000062,501.000000 
	C1.000041,334.333405 1.000041,167.666794 1.000021,1.000151 
	C167.666550,1.000101 334.333099,1.000101 500.999756,1.000050 
	C500.999817,167.666519 500.999817,334.333038 500.999908,500.999786 
	C449.833344,501.000000 398.666656,501.000000 347.000000,501.000000 
M120.004669,268.486755 
	C120.217621,282.709259 122.570114,296.557800 126.994843,310.087006 
	C133.658813,330.462921 145.273132,347.802490 160.409134,362.624329 
	C171.250870,373.240997 184.145248,381.138733 197.998093,387.618500 
	C220.027924,397.923065 243.279190,399.671051 266.839813,397.592041 
	C284.199371,396.060211 300.443604,389.943024 315.666046,381.210205 
	C334.682007,370.301147 350.048248,355.636719 361.435944,336.988403 
	C377.306000,310.999786 383.676544,282.838409 380.070374,252.439529 
	C376.640076,223.523651 364.936401,198.513794 344.843170,177.600143 
	C340.544159,173.125610 338.606781,168.872391 338.863159,162.726898 
	C339.253876,153.360626 335.501862,145.427887 329.092743,138.459641 
	C320.809021,129.453171 310.329651,124.441833 298.801483,122.160912 
	C286.315918,119.690559 273.577057,118.198982 260.876221,117.250359 
	C254.908264,116.804611 248.770554,118.631836 242.709763,119.429031 
	C260.061981,124.814011 277.452820,128.883667 292.914948,138.216629 
	C288.686554,137.954269 284.644531,137.154099 280.597748,136.378494 
	C265.286285,133.443848 249.862473,132.503235 234.552368,135.739319 
	C214.187805,140.043732 195.026138,147.805176 177.767197,159.408493 
	C169.978607,164.644806 163.204376,170.155502 153.287354,162.267212 
	C152.785004,168.569626 152.523483,173.493393 151.940399,178.378799 
	C151.698334,180.406891 151.296661,182.787369 150.074066,184.271576 
	C130.143204,208.467224 120.629562,236.372498 120.004669,268.486755 
z"/>
<path fill="#1C0C66" opacity="1.000000" stroke="none" 
	d="
M120.004677,268.000610 
	C120.629562,236.372498 130.143204,208.467224 150.074066,184.271576 
	C151.296661,182.787369 151.698334,180.406891 151.940399,178.378799 
	C152.523483,173.493393 152.785004,168.569626 153.287354,162.267212 
	C163.204376,170.155502 169.978607,164.644806 177.767197,159.408493 
	C195.026138,147.805176 214.187805,140.043732 234.552368,135.739319 
	C249.862473,132.503235 265.286285,133.443848 280.597748,136.378494 
	C284.644531,137.154099 288.686554,137.954269 292.914948,138.216629 
	C277.452820,128.883667 260.061981,124.814011 242.709763,119.429031 
	C248.770554,118.631836 254.908264,116.804611 260.876221,117.250359 
	C273.577057,118.198982 286.315918,119.690559 298.801483,122.160912 
	C310.329651,124.441833 320.809021,129.453171 329.092743,138.459641 
	C335.501862,145.427887 339.253876,153.360626 338.863159,162.726898 
	C338.606781,168.872391 340.544159,173.125610 344.843170,177.600143 
	C364.936401,198.513794 376.640076,223.523651 380.070374,252.439529 
	C383.676544,282.838409 377.306000,310.999786 361.435944,336.988403 
	C350.048248,355.636719 334.682007,370.301147 315.666046,381.210205 
	C300.443604,389.943024 284.199371,396.060211 266.839813,397.592041 
	C243.279190,399.671051 220.027924,397.923065 197.998093,387.618500 
	C184.145248,381.138733 171.250870,373.240997 160.409134,362.624329 
	C145.273132,347.802490 133.658813,330.462921 126.994843,310.087006 
	C122.570114,296.557800 120.217621,282.709259 120.004677,268.000610 
M294.566498,350.993103 
	C294.740631,350.663910 294.914734,350.334686 295.007751,350.041534 
	C295.007751,350.041534 295.046173,350.121521 295.732758,349.982513 
	C312.050385,338.738281 325.972626,311.304871 323.445312,295.072357 
	C321.836029,296.375275 320.316467,297.605560 318.278320,298.913086 
	C318.056030,299.161102 317.833740,299.409149 317.579498,299.655304 
	C317.579498,299.655304 317.556549,299.629425 316.866394,299.791992 
	C295.592834,310.605347 273.345612,304.099457 261.490692,283.510559 
	C259.077515,279.319519 255.910355,277.243500 250.443512,278.430481 
	C252.201477,287.950104 247.082016,298.115265 254.516632,307.125916 
	C250.560577,305.369904 246.604507,303.613922 242.442627,301.766571 
	C244.345825,293.646484 246.141251,285.986145 247.936676,278.325836 
	C247.490402,277.974640 247.044144,277.623474 246.597870,277.272308 
	C244.415161,279.227356 241.996307,280.980408 240.108398,283.187622 
	C237.640747,286.072601 235.910690,289.618896 233.309402,292.353851 
	C222.489639,303.729584 209.046768,306.687500 193.406754,303.557159 
	C187.943481,300.975159 182.480209,298.393158 175.812088,295.241730 
	C178.372543,304.303772 180.129028,312.961090 183.262268,321.087524 
	C189.274521,336.681122 199.829605,348.551727 215.358932,356.652496 
	C226.203842,360.768524 237.033203,364.926605 247.914093,368.945160 
	C249.214050,369.425232 250.892731,369.515747 252.229919,369.161133 
	C266.236481,365.446411 279.981903,361.056824 292.593842,352.525635 
	C293.112671,352.035309 293.631470,351.544983 294.034943,351.027527 
	C294.034943,351.027527 294.012787,351.143951 294.566498,350.993103 
M312.802734,228.973145 
	C313.773834,229.346054 314.744965,229.718964 316.886841,230.541473 
	C315.890717,223.327240 315.028503,217.082855 314.045013,210.224411 
	C313.873444,209.978607 313.718353,209.717682 313.517639,209.498566 
	C313.472473,209.449295 313.233276,209.504730 313.141632,209.581497 
	C308.852600,213.173889 304.821198,217.147552 300.204895,220.251556 
	C296.697083,222.610184 292.446442,223.864059 289.518311,225.167816 
	C296.585510,226.228653 304.410675,227.403275 312.802734,228.973145 
M193.939865,170.711853 
	C209.203247,170.046326 223.893799,167.003754 237.788589,160.659103 
	C237.706177,160.025269 237.623764,159.391434 237.541351,158.757599 
	C225.713593,159.901596 213.885849,161.045578 201.233383,162.035538 
	C195.916290,163.048523 190.599197,164.061523 184.713394,165.182861 
	C186.341934,162.620758 187.656143,160.553162 188.970367,158.485580 
	C188.650299,158.178238 188.330231,157.870911 188.010162,157.563583 
	C182.833130,161.069168 177.656097,164.574753 172.479050,168.080338 
	C172.622910,168.614105 172.766754,169.147888 172.910614,169.681656 
	C179.640686,170.002853 186.370758,170.324066 193.939865,170.711853 
M164.858826,258.374969 
	C164.825867,257.886261 164.889847,257.002625 164.745621,256.967194 
	C161.960281,256.283447 158.981476,254.877777 156.410400,255.407196 
	C154.908081,255.716568 153.168121,259.097321 153.043106,261.186523 
	C152.211197,275.090637 155.830536,288.123535 161.989243,300.453796 
	C162.811707,302.100433 165.227066,302.951416 167.441879,304.653931 
	C169.824890,305.573639 172.207901,306.493378 175.944489,307.935516 
	C174.049347,300.146454 173.594925,293.041565 170.613663,287.233795 
	C165.955353,278.158997 163.411255,269.109344 164.858826,258.374969 
M336.675140,259.950897 
	C337.845398,268.419861 336.879028,276.742615 332.142517,283.814789 
	C327.352753,290.966522 326.951599,298.909973 325.470886,307.052399 
	C325.813507,307.232574 326.156128,307.412720 327.197937,307.448334 
	C329.510284,306.376465 331.822601,305.304626 334.844543,304.136169 
	C336.868744,301.855835 339.826965,299.896912 340.742889,297.235229 
	C343.546051,289.088959 345.979126,280.758270 347.719238,272.326569 
	C348.634064,267.893707 348.178284,263.056274 347.640289,258.484070 
	C347.215668,254.875504 344.034210,254.251816 341.079041,255.176483 
	C339.295868,255.734451 335.176392,254.445068 336.675140,259.950897 
M203.957703,225.993805 
	C218.075714,225.995056 232.193741,225.996689 246.311752,225.997437 
	C255.220627,225.997925 266.581085,216.542068 268.393402,207.619095 
	C243.309662,220.488190 228.563751,221.042877 206.728043,209.361084 
	C204.135864,207.461273 201.543701,205.561447 198.539764,203.359848 
	C198.539764,211.369278 198.539764,218.634842 198.539764,226.180359 
	C200.125351,226.085022 201.576218,225.997772 203.957703,225.993805 
M334.245850,187.074387 
	C334.080353,187.093048 333.914886,187.111725 333.749390,187.130402 
	C334.490662,189.728409 335.337128,192.301651 335.955872,194.928497 
	C339.466095,209.830963 337.211090,224.413498 332.881744,238.713074 
	C331.396942,243.617371 331.591461,247.638489 334.947021,252.341644 
	C336.784760,252.137268 338.645966,252.054688 340.455933,251.706146 
	C346.381561,250.565048 349.807587,252.567642 351.002014,258.462616 
	C351.588562,261.357635 352.003021,264.489838 351.533783,267.357330 
	C350.275665,275.045746 348.591797,282.669861 346.905518,290.281525 
	C344.514465,301.074585 338.314362,308.303101 327.278320,311.062103 
	C326.008087,311.379639 324.421204,312.818420 324.064453,314.050903 
	C316.154388,341.379425 296.925873,357.352509 271.307648,366.973541 
	C259.527832,371.397522 248.094299,373.809845 235.249588,369.129456 
	C207.968826,359.188843 186.155167,344.221558 177.260452,314.889801 
	C176.728851,313.136780 174.423218,311.244965 172.562088,310.685791 
	C163.133820,307.853027 157.143280,302.030273 154.886200,292.354706 
	C153.453720,286.214050 151.321045,280.202148 150.347748,273.999847 
	C149.559616,268.977570 149.521988,263.700928 150.081268,258.639832 
	C150.723129,252.831482 154.693771,250.539413 160.443329,251.681015 
	C162.269623,252.043640 164.083969,252.466415 165.145416,252.696960 
	C161.436661,239.746399 157.746384,226.860336 154.149872,213.110062 
	C153.283188,205.348831 152.416489,197.587616 151.487976,189.272766 
	C150.648682,190.362854 150.243210,190.885452 149.841934,191.411255 
	C110.302223,243.221313 117.263786,318.439087 165.815887,361.845642 
	C176.233353,371.159058 187.579239,379.272919 201.619232,384.285217 
	C217.352051,391.147186 233.778625,394.551239 251.409943,394.527405 
	C252.279099,394.375061 253.148270,394.222687 254.754471,394.183563 
	C255.489365,394.073730 256.224243,393.963898 257.843597,394.069550 
	C295.833954,391.598389 327.450806,375.851593 350.103058,345.463501 
	C383.195587,301.069763 385.810638,253.493546 359.949371,204.556335 
	C354.452026,194.153763 347.127045,184.960098 338.492950,176.965836 
	C337.962006,177.358414 337.744324,177.432526 337.706543,177.559982 
	C336.765045,180.735840 335.842590,183.917343 334.245850,187.074387 
M305.853882,145.304153 
	C304.737457,144.982376 303.613098,144.685547 302.505737,144.335129 
	C280.361298,137.327866 257.831879,133.666077 234.721344,138.109741 
	C217.965881,141.331451 202.660507,147.843964 190.778412,161.133438 
	C190.779922,161.027252 190.781448,160.921082 191.586945,161.220383 
	C209.504333,158.106476 227.431946,155.292709 245.605042,159.339249 
	C216.486450,173.455688 186.615768,178.119507 155.468430,166.520020 
	C151.299957,191.106140 157.276428,231.345581 168.481430,250.118607 
	C169.450058,245.731171 171.051788,242.421158 170.695007,239.337738 
	C169.703415,230.767670 167.473206,222.338989 166.520248,213.766846 
	C165.307419,202.857101 165.550812,191.903427 168.109818,180.844116 
	C192.275040,188.642258 216.148331,186.914520 240.055023,181.120224 
	C232.994324,180.694473 225.933624,180.268738 218.872910,179.842987 
	C218.817535,179.435455 218.762161,179.027908 218.706787,178.620377 
	C240.678192,175.878326 262.214355,171.969955 279.593445,155.956924 
	C270.352417,154.469604 261.111420,152.982300 251.870407,151.494995 
	C277.782593,147.155533 303.184448,145.566986 325.727051,166.405685 
	C323.725128,159.695267 322.182983,154.525925 320.950989,149.047287 
	C320.950989,149.047287 321.260315,148.737137 321.874084,149.020477 
	C330.247620,157.241898 333.690887,167.540756 334.102203,179.117188 
	C340.658478,156.084091 333.996063,140.254654 312.925964,129.903961 
	C294.417267,120.811546 274.365448,119.735374 254.141037,120.283333 
	C260.994263,122.606949 268.020691,124.363525 274.793182,126.820107 
	C286.514038,131.071609 297.836670,136.184311 306.846497,145.148651 
	C306.846497,145.148651 306.618652,145.369919 305.853882,145.304153 
M179.735458,293.816132 
	C196.911835,308.214417 224.143265,305.021210 236.797913,283.856476 
	C244.040787,271.742828 257.001526,271.852203 264.372620,284.083527 
	C277.497803,305.863007 307.368256,308.988800 324.718597,290.398376 
	C336.431824,277.847961 337.292450,261.713226 326.779053,248.141968 
	C318.609772,237.596619 307.507294,233.470779 294.403351,233.523621 
	C265.255402,233.641205 236.106628,233.550461 206.958221,233.576553 
	C204.464310,233.578781 201.945801,233.638824 199.480881,233.978287 
	C184.900192,235.986130 174.630447,243.789688 169.023453,257.386139 
	C163.710587,270.269379 168.311340,281.051910 176.747223,290.851410 
	C177.505478,291.732239 178.380173,292.512787 179.735458,293.816132 
M325.648041,166.386108 
	C325.648041,166.386108 325.436188,166.232468 325.436188,166.232468 
	C325.436188,166.232468 325.442291,166.524887 325.648041,166.386108 
z"/>
<path fill="#FDFDFE" opacity="1.000000" stroke="none" 
	d="
M256.959137,393.854065 
	C256.224243,393.963898 255.489365,394.073730 254.199554,393.877563 
	C252.750320,393.776001 251.855988,393.980438 250.961670,394.184875 
	C233.778625,394.551239 217.352051,391.147186 201.257187,383.738190 
	C193.770676,377.780731 186.148773,372.908813 179.607620,366.866852 
	C150.903381,340.353119 137.897186,306.882141 138.331009,268.268738 
	C138.503235,252.941498 142.190842,237.944458 148.590881,223.836639 
	C150.138641,220.424896 152.220078,217.255249 154.056107,213.974289 
	C157.746384,226.860336 161.436661,239.746399 165.145416,252.696960 
	C164.083969,252.466415 162.269623,252.043640 160.443329,251.681015 
	C154.693771,250.539413 150.723129,252.831482 150.081268,258.639832 
	C149.521988,263.700928 149.559616,268.977570 150.347748,273.999847 
	C151.321045,280.202148 153.453720,286.214050 154.886200,292.354706 
	C157.143280,302.030273 163.133820,307.853027 172.562088,310.685791 
	C174.423218,311.244965 176.728851,313.136780 177.260452,314.889801 
	C186.155167,344.221558 207.968826,359.188843 235.249588,369.129456 
	C248.094299,373.809845 259.527832,371.397522 271.307648,366.973541 
	C296.925873,357.352509 316.154388,341.379425 324.064453,314.050903 
	C324.421204,312.818420 326.008087,311.379639 327.278320,311.062103 
	C338.314362,308.303101 344.514465,301.074585 346.905518,290.281525 
	C348.591797,282.669861 350.275665,275.045746 351.533783,267.357330 
	C352.003021,264.489838 351.588562,261.357635 351.002014,258.462616 
	C349.807587,252.567642 346.381561,250.565048 340.455933,251.706146 
	C338.645966,252.054688 336.784760,252.137268 335.025513,251.640045 
	C342.347473,235.846420 346.227264,220.060394 345.269684,203.313507 
	C358.255402,223.742279 363.536469,246.176849 363.436279,269.814697 
	C363.346863,290.922150 357.979279,310.859833 347.429321,329.292664 
	C327.853210,363.495941 298.688446,384.310028 260.100220,392.067841 
	C258.978790,392.293274 258.002899,393.242371 256.959137,393.854065 
z"/>
<path fill="#0BD1FD" opacity="1.000000" stroke="none" 
	d="
M179.468124,293.578033 
	C178.380173,292.512787 177.505478,291.732239 176.747223,290.851410 
	C168.311340,281.051910 163.710587,270.269379 169.023453,257.386139 
	C174.630447,243.789688 184.900192,235.986130 199.480881,233.978287 
	C201.945801,233.638824 204.464310,233.578781 206.958221,233.576553 
	C236.106628,233.550461 265.255402,233.641205 294.403351,233.523621 
	C307.507294,233.470779 318.609772,237.596619 326.779053,248.141968 
	C337.292450,261.713226 336.431824,277.847961 324.718597,290.398376 
	C307.368256,308.988800 277.497803,305.863007 264.372620,284.083527 
	C257.001526,271.852203 244.040787,271.742828 236.797913,283.856476 
	C224.143265,305.021210 196.911835,308.214417 179.468124,293.578033 
M221.582184,269.013275 
	C224.336029,262.105927 222.503418,260.115265 211.715256,258.499939 
	C211.028717,254.088699 212.257416,247.902420 205.081314,247.962189 
	C197.942719,248.021652 199.239182,254.159729 198.736572,258.569275 
	C190.057358,259.613068 187.505493,261.124084 187.746185,265.377716 
	C188.143906,272.406067 193.956863,271.397766 198.710312,272.183105 
	C199.110519,276.718292 198.302917,282.533234 204.821091,282.839294 
	C212.143387,283.183105 210.981659,276.615845 211.731842,272.880280 
	C215.284622,271.637146 218.181915,270.623352 221.582184,269.013275 
M281.915619,272.773926 
	C289.571045,274.579376 295.177185,270.151917 293.484619,263.618835 
	C292.489594,259.778137 289.633545,257.079620 286.069244,257.493256 
	C283.280884,257.816833 279.843719,260.041962 278.371155,262.448120 
	C276.183594,266.022522 277.682770,269.815460 281.915619,272.773926 
M307.349304,252.965286 
	C307.381592,246.351791 303.178772,242.122406 297.865509,243.509613 
	C293.645264,244.611435 291.244843,247.478012 291.415161,251.793350 
	C291.563690,255.556931 293.533264,258.500916 297.524445,259.264191 
	C302.232666,260.164551 305.645935,258.479675 307.349304,252.965286 
M305.210022,266.259338 
	C306.198151,270.903656 308.855743,273.692963 313.806702,273.489471 
	C317.490845,273.338074 320.015411,271.378723 321.025635,267.743073 
	C322.349731,262.977936 319.786896,258.718109 314.924500,257.509155 
	C310.252167,256.347473 306.584320,259.345947 305.210022,266.259338 
M297.966400,271.255219 
	C291.293518,274.040070 289.183899,280.444031 293.591888,284.836670 
	C296.319641,287.554932 299.622101,288.316803 303.137024,286.452515 
	C306.584442,284.623993 308.135742,281.647064 307.322815,277.764069 
	C306.364929,273.188416 303.315918,271.127838 297.966400,271.255219 
z"/>
<path fill="#FDC1AD" opacity="1.000000" stroke="none" 
	d="
M292.065460,352.678894 
	C279.981903,361.056824 266.236481,365.446411 252.229919,369.161133 
	C250.892731,369.515747 249.214050,369.425232 247.914093,368.945160 
	C237.033203,364.926605 226.203842,360.768524 215.142944,356.027039 
	C214.071091,354.215790 213.310471,352.945465 212.344925,351.856934 
	C200.223343,338.190948 193.950119,322.295959 193.992676,303.973938 
	C209.046768,306.687500 222.489639,303.729584 233.309402,292.353851 
	C235.910690,289.618896 237.640747,286.072601 240.108398,283.187622 
	C241.996307,280.980408 244.415161,279.227356 246.597870,277.272308 
	C247.044144,277.623474 247.490402,277.974640 247.936676,278.325836 
	C246.141251,285.986145 244.345825,293.646484 242.442627,301.766571 
	C246.604507,303.613922 250.560577,305.369904 254.516632,307.125916 
	C247.082016,298.115265 252.201477,287.950104 250.443512,278.430481 
	C255.910355,277.243500 259.077515,279.319519 261.490692,283.510559 
	C273.345612,304.099457 295.592834,310.605347 317.369385,300.171387 
	C319.029480,312.828827 314.592896,323.321564 307.533295,332.982056 
	C303.362671,338.689178 299.208008,344.407959 295.046143,350.121521 
	C295.046173,350.121521 295.007751,350.041534 294.790710,350.126282 
	C294.386688,350.522003 294.199738,350.832977 294.012787,351.143951 
	C294.012787,351.143951 294.034943,351.027527 293.797699,351.053894 
	C293.062103,351.613129 292.563782,352.145996 292.065460,352.678894 
M276.871368,315.236145 
	C271.286743,320.961731 264.169800,323.737244 256.539185,324.885529 
	C245.498703,326.546997 234.370056,327.622528 222.904816,328.992798 
	C239.643219,334.666962 255.757507,334.923035 271.031799,325.257874 
	C273.995300,323.382629 276.177002,320.213257 278.499023,317.455353 
	C278.797760,317.100525 277.762909,315.622925 276.871368,315.236145 
z"/>
<path fill="#0BCEFB" opacity="1.000000" stroke="none" 
	d="
M190.877975,160.882538 
	C202.660507,147.843964 217.965881,141.331451 234.721344,138.109741 
	C257.831879,133.666077 280.361298,137.327866 302.505737,144.335129 
	C303.613098,144.685547 304.737457,144.982376 306.436218,145.523285 
	C307.280121,145.695633 307.541687,145.648865 307.803223,145.602097 
	C307.560791,145.377731 307.318359,145.153366 307.075928,144.929001 
	C297.836670,136.184311 286.514038,131.071609 274.793182,126.820107 
	C268.020691,124.363525 260.994263,122.606949 254.141037,120.283333 
	C274.365448,119.735374 294.417267,120.811546 312.925964,129.903961 
	C333.996063,140.254654 340.658478,156.084091 334.102203,179.117188 
	C333.690887,167.540756 330.247620,157.241898 321.436218,148.651703 
	C320.771454,148.289200 320.544617,148.295471 320.317749,148.301743 
	C320.425446,148.653351 320.533112,149.004974 320.640808,149.356583 
	C322.182983,154.525925 323.725128,159.695267 325.727051,166.405685 
	C303.184448,145.566986 277.782593,147.155533 251.870407,151.494995 
	C261.111420,152.982300 270.352417,154.469604 279.593445,155.956924 
	C262.214355,171.969955 240.678192,175.878326 218.706787,178.620377 
	C218.762161,179.027908 218.817535,179.435455 218.872910,179.842987 
	C225.933624,180.268738 232.994324,180.694473 240.055023,181.120224 
	C216.148331,186.914520 192.275040,188.642258 168.109818,180.844116 
	C165.550812,191.903427 165.307419,202.857101 166.520248,213.766846 
	C167.473206,222.338989 169.703415,230.767670 170.695007,239.337738 
	C171.051788,242.421158 169.450058,245.731171 168.481430,250.118607 
	C157.276428,231.345581 151.299957,191.106140 155.468430,166.520020 
	C186.615768,178.119507 216.486450,173.455688 245.605042,159.339249 
	C227.431946,155.292709 209.504333,158.106476 191.208038,161.035492 
	C190.829147,160.850586 190.877975,160.882538 190.877975,160.882538 
z"/>
<path fill="#CFCBDE" opacity="1.000000" stroke="none" 
	d="
M257.401367,393.961792 
	C258.002899,393.242371 258.978790,392.293274 260.100220,392.067841 
	C298.688446,384.310028 327.853210,363.495941 347.429321,329.292664 
	C357.979279,310.859833 363.346863,290.922150 363.436279,269.814697 
	C363.536469,246.176849 358.255402,223.742279 345.064026,202.984741 
	C343.058502,196.326416 340.652588,190.675446 334.916748,187.097839 
	C335.842590,183.917343 336.765045,180.735840 337.706543,177.559982 
	C337.744324,177.432526 337.962006,177.358414 338.492950,176.965836 
	C347.127045,184.960098 354.452026,194.153763 359.949371,204.556335 
	C385.810638,253.493546 383.195587,301.069763 350.103058,345.463501 
	C327.450806,375.851593 295.833954,391.598389 257.401367,393.961792 
z"/>
<path fill="#CFCBDF" opacity="1.000000" stroke="none" 
	d="
M154.102997,213.542175 
	C152.220078,217.255249 150.138641,220.424896 148.590881,223.836639 
	C142.190842,237.944458 138.503235,252.941498 138.331009,268.268738 
	C137.897186,306.882141 150.903381,340.353119 179.607620,366.866852 
	C186.148773,372.908813 193.770676,377.780731 200.970062,383.517822 
	C187.579239,379.272919 176.233353,371.159058 165.815887,361.845642 
	C117.263786,318.439087 110.302223,243.221313 149.841934,191.411255 
	C150.243210,190.885452 150.648682,190.362854 151.487976,189.272766 
	C152.416489,197.587616 153.283188,205.348831 154.102997,213.542175 
z"/>
<path fill="#FBBFAC" opacity="1.000000" stroke="none" 
	d="
M207.102615,209.924622 
	C228.563751,221.042877 243.309662,220.488190 268.393402,207.619095 
	C266.581085,216.542068 255.220627,225.997925 246.311752,225.997437 
	C232.193741,225.996689 218.075714,225.995056 203.460175,225.538864 
	C204.342636,220.030823 205.722626,214.977722 207.102615,209.924622 
z"/>
<path fill="#CE9A9D" opacity="1.000000" stroke="none" 
	d="
M193.699707,303.765564 
	C193.950119,322.295959 200.223343,338.190948 212.344925,351.856934 
	C213.310471,352.945465 214.071091,354.215790 214.933533,355.755066 
	C199.829605,348.551727 189.274521,336.681122 183.262268,321.087524 
	C180.129028,312.961090 178.372543,304.303772 175.812088,295.241730 
	C182.480209,298.393158 187.943481,300.975159 193.699707,303.765564 
z"/>
<path fill="#0FCCF9" opacity="1.000000" stroke="none" 
	d="
M334.581299,187.086121 
	C340.652588,190.675446 343.058502,196.326416 344.745483,202.881851 
	C346.227264,220.060394 342.347473,235.846420 334.955475,251.234070 
	C331.591461,247.638489 331.396942,243.617371 332.881744,238.713074 
	C337.211090,224.413498 339.466095,209.830963 335.955872,194.928497 
	C335.337128,192.301651 334.490662,189.728409 333.749390,187.130402 
	C333.914886,187.111725 334.080353,187.093048 334.581299,187.086121 
z"/>
<path fill="#FABEAB" opacity="1.000000" stroke="none" 
	d="
M334.134949,304.232758 
	C331.822601,305.304626 329.510284,306.376465 326.688721,307.327698 
	C326.063965,307.086517 325.948486,306.966003 325.832977,306.845520 
	C326.951599,298.909973 327.352753,290.966522 332.142517,283.814789 
	C336.879028,276.742615 337.845398,268.419861 337.108032,259.476349 
	C341.747467,259.079895 344.075989,261.156708 344.033478,265.425751 
	C344.010559,267.726898 343.956879,270.116547 343.347870,272.308044 
	C340.382355,282.978912 337.224640,293.596375 334.134949,304.232758 
z"/>
<path fill="#FABEAB" opacity="1.000000" stroke="none" 
	d="
M164.610611,259.014313 
	C163.411255,269.109344 165.955353,278.158997 170.613663,287.233795 
	C173.594925,293.041565 174.049347,300.146454 175.944489,307.935516 
	C172.207901,306.493378 169.824890,305.573639 167.193756,304.019592 
	C163.756607,292.105927 160.380280,280.874939 157.448959,269.528992 
	C155.697998,262.751617 158.026749,259.735626 164.610611,259.014313 
z"/>
<path fill="#F8F8FB" opacity="1.000000" stroke="none" 
	d="
M202.058105,162.189575 
	C213.885849,161.045578 225.713593,159.901596 237.541351,158.757599 
	C237.623764,159.391434 237.706177,160.025269 237.788589,160.659103 
	C223.893799,167.003754 209.203247,170.046326 193.579742,170.356323 
	C196.165787,167.397049 199.111954,164.793320 202.058105,162.189575 
z"/>
<path fill="#CD999D" opacity="1.000000" stroke="none" 
	d="
M164.734711,258.694641 
	C158.026749,259.735626 155.697998,262.751617 157.448959,269.528992 
	C160.380280,280.874939 163.756607,292.105927 166.925217,303.778076 
	C165.227066,302.951416 162.811707,302.100433 161.989243,300.453796 
	C155.830536,288.123535 152.211197,275.090637 153.043106,261.186523 
	C153.168121,259.097321 154.908081,255.716568 156.410400,255.407196 
	C158.981476,254.877777 161.960281,256.283447 164.745621,256.967194 
	C164.889847,257.002625 164.825867,257.886261 164.734711,258.694641 
z"/>
<path fill="#CC989C" opacity="1.000000" stroke="none" 
	d="
M334.489746,304.184448 
	C337.224640,293.596375 340.382355,282.978912 343.347870,272.308044 
	C343.956879,270.116547 344.010559,267.726898 344.033478,265.425751 
	C344.075989,261.156708 341.747467,259.079895 337.132446,259.014160 
	C335.176392,254.445068 339.295868,255.734451 341.079041,255.176483 
	C344.034210,254.251816 347.215668,254.875504 347.640289,258.484070 
	C348.178284,263.056274 348.634064,267.893707 347.719238,272.326569 
	C345.979126,280.758270 343.546051,289.088959 340.742889,297.235229 
	C339.826965,299.896912 336.868744,301.855835 334.489746,304.184448 
z"/>
<path fill="#F8F3F4" opacity="1.000000" stroke="none" 
	d="
M295.389465,350.052002 
	C299.208008,344.407959 303.362671,338.689178 307.533295,332.982056 
	C314.592896,323.321564 319.029480,312.828827 317.714478,300.090088 
	C317.556549,299.629425 317.579498,299.655304 317.865662,299.649353 
	C318.366821,299.374207 318.581879,299.105042 318.796906,298.835846 
	C320.316467,297.605560 321.836029,296.375275 323.445312,295.072357 
	C325.972626,311.304871 312.050385,338.738281 295.389465,350.052002 
z"/>
<path fill="#F7BCAB" opacity="1.000000" stroke="none" 
	d="
M312.235840,228.577896 
	C304.410675,227.403275 296.585510,226.228653 289.518311,225.167816 
	C292.446442,223.864059 296.697083,222.610184 300.204895,220.251556 
	C304.821198,217.147552 308.852600,213.173889 313.141632,209.581497 
	C313.233276,209.504730 313.472473,209.449295 313.517639,209.498566 
	C313.718353,209.717682 313.873444,209.978607 314.037781,210.962799 
	C313.432312,217.326767 312.834076,222.952332 312.235840,228.577896 
z"/>
<path fill="#C5C0D8" opacity="1.000000" stroke="none" 
	d="
M201.645752,162.112549 
	C199.111954,164.793320 196.165787,167.397049 193.160233,170.323029 
	C186.370758,170.324066 179.640686,170.002853 172.910614,169.681656 
	C172.766754,169.147888 172.622910,168.614105 172.479050,168.080338 
	C177.656097,164.574753 182.833130,161.069168 188.010162,157.563583 
	C188.330231,157.870911 188.650299,158.178238 188.970367,158.485580 
	C187.656143,160.553162 186.341934,162.620758 184.713394,165.182861 
	C190.599197,164.061523 195.916290,163.048523 201.645752,162.112549 
z"/>
<path fill="#CC989C" opacity="1.000000" stroke="none" 
	d="
M206.915329,209.642853 
	C205.722626,214.977722 204.342636,220.030823 202.994873,225.497223 
	C201.576218,225.997772 200.125351,226.085022 198.539764,226.180359 
	C198.539764,218.634842 198.539764,211.369278 198.539764,203.359848 
	C201.543701,205.561447 204.135864,207.461273 206.915329,209.642853 
z"/>
<path fill="#17BEEC" opacity="1.000000" stroke="none" 
	d="
M312.519287,228.775513 
	C312.834076,222.952332 313.432312,217.326767 314.098389,211.269836 
	C315.028503,217.082855 315.890717,223.327240 316.886841,230.541473 
	C314.744965,229.718964 313.773834,229.346054 312.519287,228.775513 
z"/>
<path fill="#CFCBDE" opacity="1.000000" stroke="none" 
	d="
M251.185806,394.356140 
	C251.855988,393.980438 252.750320,393.776001 253.831039,393.820953 
	C253.148270,394.222687 252.279099,394.375061 251.185806,394.356140 
z"/>
<path fill="#F8F3F4" opacity="1.000000" stroke="none" 
	d="
M292.329651,352.602264 
	C292.563782,352.145996 293.062103,351.613129 293.855347,351.067444 
	C293.631470,351.544983 293.112671,352.035309 292.329651,352.602264 
z"/>
<path fill="#0BCEFB" opacity="1.000000" stroke="none" 
	d="
M325.545166,166.455505 
	C325.442291,166.524887 325.436188,166.232468 325.436188,166.232468 
	C325.436188,166.232468 325.648041,166.386108 325.545166,166.455505 
z"/>
<path fill="#0BCEFB" opacity="1.000000" stroke="none" 
	d="
M190.806061,160.832733 
	C190.781448,160.921082 190.779922,161.027252 190.828186,161.007996 
	C190.877975,160.882538 190.829147,160.850586 190.806061,160.832733 
z"/>
<path fill="#FDC1AD" opacity="1.000000" stroke="none" 
	d="
M318.537598,298.874451 
	C318.581879,299.105042 318.366821,299.374207 317.881622,299.650299 
	C317.833740,299.409149 318.056030,299.161102 318.537598,298.874451 
z"/>
<path fill="#FABEAB" opacity="1.000000" stroke="none" 
	d="
M326.339111,307.399963 
	C326.156128,307.412720 325.813507,307.232574 325.651917,306.948975 
	C325.948486,306.966003 326.063965,307.086517 326.339111,307.399963 
z"/>
<path fill="#F8F3F4" opacity="1.000000" stroke="none" 
	d="
M294.289642,351.068542 
	C294.199738,350.832977 294.386688,350.522003 294.831238,350.108246 
	C294.914734,350.334686 294.740631,350.663910 294.289642,351.068542 
z"/>
<path fill="#190965" opacity="1.000000" stroke="none" 
	d="
M221.330688,269.311401 
	C218.181915,270.623352 215.284622,271.637146 211.731842,272.880280 
	C210.981659,276.615845 212.143387,283.183105 204.821091,282.839294 
	C198.302917,282.533234 199.110519,276.718292 198.710312,272.183105 
	C193.956863,271.397766 188.143906,272.406067 187.746185,265.377716 
	C187.505493,261.124084 190.057358,259.613068 198.736572,258.569275 
	C199.239182,254.159729 197.942719,248.021652 205.081314,247.962189 
	C212.257416,247.902420 211.028717,254.088699 211.715256,258.499939 
	C222.503418,260.115265 224.336029,262.105927 221.330688,269.311401 
z"/>
<path fill="#180D68" opacity="1.000000" stroke="none" 
	d="
M281.600159,272.572632 
	C277.682770,269.815460 276.183594,266.022522 278.371155,262.448120 
	C279.843719,260.041962 283.280884,257.816833 286.069244,257.493256 
	C289.633545,257.079620 292.489594,259.778137 293.484619,263.618835 
	C295.177185,270.151917 289.571045,274.579376 281.600159,272.572632 
z"/>
<path fill="#180E68" opacity="1.000000" stroke="none" 
	d="
M307.254028,253.326202 
	C305.645935,258.479675 302.232666,260.164551 297.524445,259.264191 
	C293.533264,258.500916 291.563690,255.556931 291.415161,251.793350 
	C291.244843,247.478012 293.645264,244.611435 297.865509,243.509613 
	C303.178772,242.122406 307.381592,246.351791 307.254028,253.326202 
z"/>
<path fill="#190D68" opacity="1.000000" stroke="none" 
	d="
M305.183960,265.876343 
	C306.584320,259.345947 310.252167,256.347473 314.924500,257.509155 
	C319.786896,258.718109 322.349731,262.977936 321.025635,267.743073 
	C320.015411,271.378723 317.490845,273.338074 313.806702,273.489471 
	C308.855743,273.692963 306.198151,270.903656 305.183960,265.876343 
z"/>
<path fill="#190D67" opacity="1.000000" stroke="none" 
	d="
M298.349304,271.212555 
	C303.315918,271.127838 306.364929,273.188416 307.322815,277.764069 
	C308.135742,281.647064 306.584442,284.623993 303.137024,286.452515 
	C299.622101,288.316803 296.319641,287.554932 293.591888,284.836670 
	C289.183899,280.444031 291.293518,274.040070 298.349304,271.212555 
z"/>
<path fill="#240F65" opacity="1.000000" stroke="none" 
	d="
M277.108582,314.950806 
	C277.762909,315.622925 278.797760,317.100525 278.499023,317.455353 
	C276.177002,320.213257 273.995300,323.382629 271.031799,325.257874 
	C255.757507,334.923035 239.643219,334.666962 222.904816,328.992798 
	C234.370056,327.622528 245.498703,326.546997 256.539185,324.885529 
	C264.169800,323.737244 271.286743,320.961731 277.108582,314.950806 
z"/>
<path fill="#1C0C66" opacity="1.000000" stroke="none" 
	d="
M320.795898,149.201935 
	C320.533112,149.004974 320.425446,148.653351 320.317749,148.301743 
	C320.544617,148.295471 320.771454,148.289200 321.129333,148.510040 
	C321.260315,148.737137 320.950989,149.047287 320.795898,149.201935 
z"/>
<path fill="#1C0C66" opacity="1.000000" stroke="none" 
	d="
M306.961212,145.038818 
	C307.318359,145.153366 307.560791,145.377731 307.803223,145.602097 
	C307.541687,145.648865 307.280121,145.695633 306.818604,145.556152 
	C306.618652,145.369919 306.846497,145.148651 306.961212,145.038818 
z"/>
</svg>